HIERARCHY
ROOT hip
{
	OFFSET 0.000000 0.000000 0.000000 
	CHANNELS 6 Xposition Yposition Zposition Xrotation Zrotation Yrotation
	JOINT abdomen
	{
		OFFSET 0.000000 3.402643 0.000000 
		CHANNELS 3 Xrotation Zrotation Yrotation
		JOINT chest
		{
			OFFSET 0.000000 8.438565 -0.680529 
			CHANNELS 3 Xrotation Zrotation Yrotation
			JOINT neck
			{
				OFFSET 0.000000 10.207942 -0.272212 
				CHANNELS 3 Xrotation Zrotation Yrotation
				JOINT head
				{
					OFFSET 0.000000 3.130431 0.000000 
					CHANNELS 3 Xrotation Zrotation Yrotation
					End Site
					{
						OFFSET 0.000000 3.130435 0.000000 
					}
				}
			}
			JOINT lCollar
			{
				OFFSET 3.470700 6.669187 -0.816635 
				CHANNELS 3 Yrotation Zrotation Xrotation
				JOINT lShldr
				{
					OFFSET 3.198488 0.000000 0.000000 
					CHANNELS 3 Zrotation Yrotation Xrotation
					JOINT lForeArm
					{
						OFFSET 10.139888 0.000000 0.000000 
						CHANNELS 3 Yrotation Zrotation Xrotation
						JOINT lHand
						{
							OFFSET 8.370511 0.000000 0.000000 
							CHANNELS 3 Zrotation Yrotation Xrotation
							End Site
							{
								OFFSET 4.083176 0.000000 0.000000 
							}
						}
					}
				}
			}
			JOINT rCollar
			{
				OFFSET -3.470700 6.669187 -0.816635 
				CHANNELS 3 Yrotation Zrotation Xrotation
				JOINT rShldr
				{
					OFFSET -3.198488 0.000000 0.000000 
					CHANNELS 3 Zrotation Yrotation Xrotation
					JOINT rForeArm
					{
						OFFSET -10.139888 0.000000 0.000000 
						CHANNELS 3 Yrotation Zrotation Xrotation
						JOINT rHand
						{
							OFFSET -8.370511 0.000000 0.000000 
							CHANNELS 3 Zrotation Yrotation Xrotation
							End Site
							{
								OFFSET -4.083176 0.000000 0.000000 
							}
						}
					}
				}
			}
		}
	}
	JOINT lThigh
	{
		OFFSET 5.308129 -1.633274 1.361059 
		CHANNELS 3 Xrotation Zrotation Yrotation
		JOINT lShin
		{
			OFFSET -2.041588 -20.007561 0.000000 
			CHANNELS 3 Xrotation Zrotation Yrotation
			JOINT lFoot
			{
				OFFSET 0.000000 -19.190928 -1.224953 
				CHANNELS 3 Xrotation Yrotation Zrotation
				End Site
				{
					OFFSET 0.000000 -2.449906 4.627600 
				}
			}
		}
	}
	JOINT rThigh
	{
		OFFSET -5.308129 -1.633274 1.361059 
		CHANNELS 3 Xrotation Zrotation Yrotation
		JOINT rShin
		{
			OFFSET 2.041588 -20.007561 0.000000 
			CHANNELS 3 Xrotation Zrotation Yrotation
			JOINT rFoot
			{
				OFFSET 0.000000 -19.190928 -1.224953 
				CHANNELS 3 Xrotation Yrotation Zrotation
				End Site
				{
					OFFSET 0.000000 -2.449906 4.627600 
				}
			}
		}
	}
}
MOTION
Frames: 10
Frame Time: 0.016667
-3.317348 44.866451 2.810926 7.480700 -0.445396 2.851600 -18.624001 0.410329 3.013550 16.868401 -3.420650 1.645750 12.618200 10.785800 -10.758300 15.186800 7.691580 -4.019700 2.000000 -2.000000 0.000000 -79.927399 12.962700 160.733002 58.916500 -0.285435 0.117140 0.047890 -0.032160 -148.483994 -2.000000 2.000000 0.000000 -25.159700 30.186701 110.440002 -45.771900 0.310211 0.097971 -0.072448 -0.073940 -109.480003 -11.832633 7.579503 -9.733014 18.877687 3.979646 1.221564 -4.981698 20.240824 2.626919 -20.476456 3.435833 -5.147375 32.830353 -2.105665 -2.666990 -15.866019 -0.620196 -1.199650 
-3.351319 44.859753 2.861220 7.490510 -0.493797 3.059990 -18.652800 0.293579 3.063620 16.818899 -3.576380 1.658810 12.767300 10.577300 -10.754200 15.223200 7.585090 -4.036450 2.000000 -2.000000 0.000000 -79.790604 12.796700 160.733994 58.633301 -0.286012 0.116789 0.047787 -0.031650 -148.298996 -2.000000 2.000000 0.000000 -26.961000 30.669201 104.936996 -45.039501 0.311456 0.096744 -0.070533 -0.060363 -111.003998 -11.867408 7.649923 -9.825027 18.940676 3.966245 1.228808 -5.033129 20.200718 2.617947 -20.434170 3.518845 -5.162439 32.821629 -2.100727 -2.685280 -15.970635 -0.810107 -1.271850 
-3.365407 44.857811 2.898325 7.500500 -0.658381 3.301880 -18.701599 0.266047 3.073660 16.750099 -3.644310 1.667600 13.147800 10.271300 -10.682000 15.327700 7.447990 -4.039070 2.000000 -2.000000 0.000000 -79.761200 12.669800 160.744003 58.496601 -0.286291 0.116619 0.047611 -0.030765 -147.975998 -2.000000 2.000000 0.000000 -27.543200 31.041599 102.656998 -45.430099 0.310794 0.097400 -0.070176 -0.059624 -111.296997 -12.075618 7.844241 -9.999166 19.069860 3.966666 1.218461 -5.127733 19.999657 2.632838 -20.342358 3.693418 -5.279348 32.692692 -2.111922 -2.662134 -16.001799 -1.139641 -1.397964 
-3.379493 44.855755 2.935419 7.500780 -0.822976 3.553630 -18.760099 0.229333 3.087020 16.691099 -3.702520 1.675260 13.527900 9.965520 -10.613900 15.432200 7.310950 -4.051970 2.000000 -2.000000 0.000000 -79.731903 12.542900 160.763000 58.359901 -0.286569 0.116448 0.047446 -0.029906 -147.664001 -2.000000 2.000000 0.000000 -28.145000 31.394300 100.366997 -45.820801 0.310128 0.098052 -0.069823 -0.058883 -111.589996 -12.257671 8.025025 -10.174196 19.217775 3.977130 1.229156 -5.228888 19.818432 2.644448 -20.259678 3.873217 -5.367876 32.557030 -2.096698 -2.670587 -16.028013 -1.450727 -1.525218 
-3.374910 44.856915 2.963481 7.491140 -0.890771 3.710860 -18.780701 0.153409 3.051300 16.710899 -3.663630 1.642090 13.788100 9.824970 -10.435900 15.480000 7.261740 -3.996790 2.000000 -2.000000 0.000000 -79.751198 12.454600 160.587997 58.350101 -0.286589 0.116436 0.047360 -0.029449 -147.498001 -2.000000 2.000000 0.000000 -27.230900 31.481100 102.529999 -47.598099 0.307041 0.100960 -0.070034 -0.059328 -111.414001 -12.220317 8.104747 -10.305970 19.107153 3.983746 1.240538 -5.288436 19.730453 2.637378 -20.152697 3.929826 -5.333935 32.420876 -2.083327 -2.669890 -16.107866 -1.520332 -1.565011 
-3.370315 44.858078 2.991543 7.481520 -0.958568 3.858350 -18.791500 0.068199 3.018610 16.730600 -3.624740 1.608950 14.037900 9.675560 -10.262300 15.518100 7.212810 -3.942910 2.000000 -2.000000 0.000000 -79.770599 12.366300 160.412003 58.340401 -0.286608 0.116424 0.047280 -0.029019 -147.341995 -2.000000 2.000000 0.000000 -26.306999 31.528700 104.703003 -49.385201 0.303848 0.103786 -0.070259 -0.059796 -111.227997 -12.178580 8.205933 -10.429744 18.989985 3.971116 1.239072 -5.328307 19.659084 2.655309 -20.086346 3.985329 -5.284602 32.391293 -2.080846 -2.660131 -16.243952 -1.609279 -1.616812 
-3.330817 44.835255 2.993239 7.472220 -1.152240 3.833090 -18.753700 0.044009 2.953960 16.877800 -3.518140 1.573290 13.946100 9.681040 -10.110100 15.391700 7.273740 -3.888800 2.000000 -2.000000 0.000000 -79.946098 12.277900 160.177994 58.340401 -0.286608 0.116424 0.047370 -0.029503 -147.516998 -2.000000 2.000000 0.000000 -24.162600 31.407301 110.528999 -52.305199 0.298445 0.108185 -0.071441 -0.062202 -110.271004 -12.056783 8.361389 -10.496229 18.906115 3.987071 1.221958 -5.395585 19.833473 2.682072 -20.177500 4.126646 -5.368416 32.576469 -2.098969 -2.670738 -16.299810 -1.553264 -1.598163 
-3.291330 44.812569 2.994925 7.453210 -1.336270 3.809400 -18.715700 0.023244 2.898450 17.015200 -3.411460 1.528990 13.855400 9.695420 -9.966990 15.265700 7.344270 -3.842830 2.000000 -2.000000 0.000000 -80.121597 12.179700 159.944000 58.350101 -0.286589 0.116436 0.047466 -0.030013 -147.703003 -2.000000 2.000000 0.000000 -22.048401 31.099100 116.338997 -55.234901 0.292807 0.112317 -0.072663 -0.074352 -109.314003 -11.948071 8.523624 -10.544337 18.854233 3.994754 1.213746 -5.472336 20.033844 2.722805 -20.209898 4.271070 -5.406971 32.636810 -2.083046 -2.684818 -16.284906 -1.515428 -1.576827 
-3.249766 44.797230 2.990094 7.414510 -1.452600 3.697520 -18.657801 -0.009286 2.867160 17.152901 -3.207240 1.498950 13.875700 9.841070 -9.849840 15.229200 7.450710 -3.797830 2.000000 -2.000000 0.000000 -80.258102 12.042600 159.748993 58.262199 -0.286767 0.116326 0.047538 -0.030389 -147.839996 -2.000000 2.000000 0.000000 -19.187300 30.649700 124.552002 -58.574699 0.286132 0.116668 -0.074689 -0.078106 -107.791000 -11.825706 8.591495 -10.635441 18.893843 3.998331 1.223849 -5.571700 20.269854 2.772331 -20.202105 4.357796 -5.444649 32.675022 -2.092335 -2.676428 -16.240143 -1.475671 -1.564940 
-3.208199 44.781891 2.985252 7.375860 -1.578630 3.594310 -18.599899 -0.041828 2.835820 17.280701 -3.002910 1.470400 13.906600 9.985540 -9.738240 15.202400 7.547320 -3.753570 2.000000 -2.000000 0.000000 -80.384903 11.905400 159.563995 58.184101 -0.286925 0.116228 0.047611 -0.030765 -147.975998 -2.000000 2.000000 0.000000 -16.445999 29.866199 132.679993 -61.904800 0.279234 0.120612 -0.076801 -0.081781 -106.277000 -11.730272 8.684864 -10.719917 18.939369 3.970697 1.219789 -5.662765 20.485493 2.821855 -20.193462 4.450004 -5.473086 32.715492 -2.074913 -2.680789 -16.214956 -1.440229 -1.545050 
